<svg xmlns="http://www.w3.org/2000/svg" width="18.391" height="21" viewBox="0 0 18.391 21"><defs><style>.a{fill:#001524;stroke:rgba(0,0,0,0);}</style></defs><path class="a" d="M-2568.652-2060a2.613,2.613,0,0,1-2.609-2.609v-12.173h1.74v12.173a.87.87,0,0,0,.87.87h8.7a.871.871,0,0,0,.869-.87v-12.173h1.739v12.173a2.612,2.612,0,0,1-2.608,2.609Zm6.087-3.479v-10.434h1.739v10.434Zm-2.609,0v-10.434h1.739v10.434Zm-2.608,0v-10.434h1.739v10.434Zm-5.218-12.173v-1.74h4.348v-.87a1.741,1.741,0,0,1,1.739-1.739h5.218a1.742,1.742,0,0,1,1.739,1.739v.87h4.347v1.74Zm6.087-1.74h5.218v-.87h-5.218Z" transform="translate(2573.5 2080.5)"/></svg>